<?xml version="1.0" encoding="UTF-8" standalone="no"?>
<!DOCTYPE svg PUBLIC "-//W3C//DTD SVG 1.1//EN" "http://www.w3.org/Graphics/SVG/1.1/DTD/svg11.dtd">
<svg width="100%" height="100%" viewBox="0 0 4851 4851" version="1.1" xmlns="http://www.w3.org/2000/svg" xmlns:xlink="http://www.w3.org/1999/xlink" xml:space="preserve" xmlns:serif="http://www.serif.com/" style="fill-rule:evenodd;clip-rule:evenodd;stroke-linecap:round;stroke-linejoin:round;">
    <g transform="matrix(1,0,0,1,-17223.2,-4111.28)">
        <g id="Artboard1" transform="matrix(1.3478,0,0,1.3478,17225.4,4108.03)">
            <rect x="-1.609" y="2.413" width="3599.2" height="3599.2" style="fill:none;"/>
            <g id="primary-2" transform="matrix(1.06041,0,0,1.06041,2546.07,2154.77)">
                <circle cx="366.667" cy="266.667" r="166.667" style="fill:none;stroke:black;stroke-width:182.48px;"/>
            </g>
            <g transform="matrix(0.741951,0,0,0.741951,-12780.4,-3310.2)">
                <path d="M21494.1,7306.44C20896.3,6963.8 20654.7,7571.2 20196.6,7676.25C19612.5,7810.2 17440.9,7723.06 17440.9,7723.06L17448.1,7495.89C17448.1,7495.89 18212.4,5692.23 19451.6,5692.23C20513.2,5692.23 20753.6,6717.7 20753.6,6717.7C20753.6,6717.7 21426,6661.03 21683.5,7049.47C21924.3,7412.57 21819.2,7743.17 21819.2,7743.17" style="fill:none;stroke:black;stroke-width:253.3px;stroke-miterlimit:1.5;"/>
            </g>
            <g transform="matrix(0.824637,0,0,0.444202,-14062.3,-889.359)">
                <path d="M17906.8,7925.95C17941.5,8237.34 18328.3,8243.02 18363.6,7925.95" style="fill:none;stroke:black;stroke-width:283.75px;stroke-miterlimit:1.5;"/>
            </g>
            <g transform="matrix(0.741951,0,0,0.741951,-12780.4,-3310.2)">
                <path d="M17560.9,7596.59C17560.9,7596.59 18383.7,6753.22 18925,7062.54C19302,7277.97 19118,7670.58 19118,7670.58" style="fill:none;stroke:black;stroke-width:253.3px;stroke-miterlimit:1.5;"/>
            </g>
        </g>
    </g>
</svg>
