<?xml version="1.0" encoding="UTF-8" standalone="no"?>
<!DOCTYPE svg PUBLIC "-//W3C//DTD SVG 1.1//EN" "http://www.w3.org/Graphics/SVG/1.1/DTD/svg11.dtd">
<svg width="100%" height="100%" viewBox="0 0 3600 3600" version="1.1" xmlns="http://www.w3.org/2000/svg" xmlns:xlink="http://www.w3.org/1999/xlink" xml:space="preserve" xmlns:serif="http://www.serif.com/" style="fill-rule:evenodd;clip-rule:evenodd;stroke-linejoin:round;stroke-miterlimit:2;">
    <g transform="matrix(1,0,0,1,-12891,-4221.73)">
        <g id="Artboard1" transform="matrix(1,0,0,1,12892.6,4219.32)">
            <rect x="-1.609" y="2.413" width="3599.2" height="3599.2" style="fill:none;"/>
            <g id="doc-paper-svgrepo-com.svg" transform="matrix(4.47348,0,0,4.47348,1791.7,1810.73)">
                <g transform="matrix(1,0,0,1,-400,-400)">
                    <path d="M233.333,100C196.514,100 166.667,129.848 166.667,166.667L166.667,573.333C166.667,601.887 166.693,621.297 167.918,636.3C169.112,650.913 171.277,658.387 173.933,663.6C180.324,676.143 190.523,686.343 203.067,692.733C208.281,695.39 215.754,697.553 230.368,698.747C245.371,699.973 264.781,700 293.333,700L506.667,700C535.22,700 554.63,699.973 569.633,698.747C584.247,697.553 591.72,695.39 596.933,692.733C609.477,686.343 619.677,676.143 626.067,663.6C628.723,658.387 630.887,650.913 632.08,636.3C633.307,621.297 633.333,601.887 633.333,573.333L633.333,433.333C633.333,359.697 573.637,300 500,300L475,300C415.17,300 366.667,251.498 366.667,191.667C366.667,141.041 325.626,100 275,100L233.333,100ZM333.333,33.333C535.837,33.333 700,197.496 700,400L700,574.71C700,601.543 700,623.687 698.527,641.727C696.997,660.463 693.71,677.687 685.467,693.867C672.683,718.953 652.287,739.35 627.2,752.133C611.02,760.377 593.797,763.663 575.06,765.193C557.02,766.667 534.877,766.667 508.043,766.667L291.956,766.667C265.124,766.667 242.979,766.667 224.939,765.193C206.203,763.663 188.979,760.377 172.801,752.133C147.713,739.35 127.316,718.953 114.532,693.867C106.289,677.687 103.004,660.463 101.473,641.727C99.999,623.687 100,601.543 100,574.71L100,166.667C100,93.029 159.695,33.333 233.333,33.333L333.333,33.333ZM598.247,259.088C559.557,186.502 491.907,131.691 410.72,110.076C425.077,133.904 433.333,161.821 433.333,191.667C433.333,214.679 451.987,233.333 475,233.333L500,233.333C535.707,233.333 569.23,242.691 598.247,259.088Z"/>
                </g>
            </g>
        </g>
    </g>
</svg>
