<?xml version="1.0" encoding="UTF-8" standalone="no"?>
<!DOCTYPE svg PUBLIC "-//W3C//DTD SVG 1.1//EN" "http://www.w3.org/Graphics/SVG/1.1/DTD/svg11.dtd">
<svg width="100%" height="100%" viewBox="0 0 3600 3600" version="1.1" xmlns="http://www.w3.org/2000/svg" xmlns:xlink="http://www.w3.org/1999/xlink" xml:space="preserve" xmlns:serif="http://www.serif.com/" style="fill-rule:evenodd;clip-rule:evenodd;stroke-linejoin:round;stroke-miterlimit:2;">
    <g id="Artboard1" transform="matrix(1,0,0,1,1.60856,-2.41288)">
        <rect x="-1.609" y="2.413" width="3599.2" height="3599.2" style="fill:none;"/>
        <g id="door-svgrepo-com.svg" transform="matrix(4.16667,0,0,4.16667,1756.25,1807.51)">
            <g transform="matrix(1,0,0,1,-400,-400)">
                <path d="M535.58,75C521.773,75 510.58,86.193 510.58,100C510.58,113.807 521.773,125 535.58,125L535.58,75ZM535.58,675C521.773,675 510.58,686.193 510.58,700C510.58,713.807 521.773,725 535.58,725L535.58,675ZM683.323,125C689.953,125 696.31,127.634 701,132.322L736.357,96.967C722.29,82.902 703.213,75 683.323,75L683.323,125ZM701,132.322C705.69,137.011 708.323,143.37 708.323,150L758.323,150C758.323,130.109 750.42,111.032 736.357,96.967L701,132.322ZM708.323,150L708.323,650L758.323,650L758.323,150L708.323,150ZM708.323,650C708.323,656.63 705.69,662.99 701,667.677L736.357,703.033C750.42,688.967 758.323,669.89 758.323,650L708.323,650ZM701,667.677C696.31,672.367 689.953,675 683.323,675L683.323,725C703.213,725 722.29,717.097 736.357,703.033L701,667.677ZM535.58,125L683.323,125L683.323,75L535.58,75L535.58,125ZM683.323,675L535.58,675L535.58,725L683.323,725L683.323,675Z" style="fill:white;fill-rule:nonzero;"/>
                <path d="M403.44,766.42L400.137,791.203L400.14,791.203L403.44,766.42ZM89.156,724.507L92.46,699.727L92.431,699.723L89.156,724.507ZM66.667,700.323L91.667,700.337L91.667,700.323L66.667,700.323ZM66.667,130.185L91.667,130.185L91.667,130.163L66.667,130.185ZM87.375,106.263L92.273,130.778C92.511,130.73 92.749,130.679 92.986,130.625L87.375,106.263ZM401.66,33.875L396.763,9.359C396.523,9.407 396.287,9.458 396.05,9.513L401.66,33.875ZM433.333,57.798L408.333,57.776L408.333,57.798L433.333,57.798ZM433.333,742.237L458.333,742.253L458.333,742.237L433.333,742.237ZM406.747,741.64L92.46,699.727L85.851,749.287L400.137,791.203L406.747,741.64ZM92.431,699.723C92.097,699.68 91.83,699.587 91.641,699.49C91.453,699.393 91.378,699.313 91.377,699.313L54.762,733.363C63.009,742.23 74.113,747.737 85.88,749.293L92.431,699.723ZM91.377,699.313C91.376,699.313 91.396,699.333 91.426,699.38C91.456,699.43 91.494,699.497 91.531,699.59C91.607,699.783 91.667,700.04 91.667,700.337L41.667,700.31C41.66,712.73 46.474,724.45 54.762,733.363L91.377,699.313ZM91.667,700.323L91.667,130.185L41.667,130.185L41.667,700.323L91.667,700.323ZM91.667,130.163C91.667,130.441 91.614,130.685 91.544,130.873C91.474,131.058 91.4,131.15 91.387,131.166L53.583,98.442C46,107.202 41.656,118.405 41.667,130.207L91.667,130.163ZM91.387,131.166C91.375,131.179 91.626,130.907 92.273,130.778L82.476,81.747C71.393,83.962 61.133,89.719 53.583,98.442L91.387,131.166ZM92.986,130.625L407.27,58.237L396.05,9.513L81.763,81.9L92.986,130.625ZM406.56,58.39C406.963,58.31 407.393,58.315 407.79,58.403L418.68,9.604C411.477,7.996 403.997,7.914 396.763,9.359L406.56,58.39ZM407.79,58.403C408.183,58.491 408.433,58.636 408.55,58.725L438.687,18.827C432.73,14.329 425.887,11.212 418.68,9.604L407.79,58.403ZM408.55,58.725C408.663,58.81 408.61,58.808 408.52,58.63L453.05,35.889C449.597,29.129 444.647,23.329 438.687,18.827L408.55,58.725ZM408.52,58.63C408.427,58.444 408.333,58.146 408.333,57.776L458.333,57.82C458.34,50.157 456.507,42.658 453.05,35.889L408.52,58.63ZM408.333,57.798L408.333,742.237L458.333,742.237L458.333,57.798L408.333,57.798ZM408.333,742.22C408.333,741.867 408.42,741.577 408.51,741.39L453.417,763.377C456.627,756.82 458.33,749.61 458.333,742.253L408.333,742.22ZM408.51,741.39C408.6,741.207 408.66,741.187 408.573,741.257L440.023,780.13C445.603,775.613 450.21,769.923 453.417,763.377L408.51,741.39ZM408.573,741.257C408.483,741.33 408.27,741.467 407.917,741.567L421.157,789.78C428,787.9 434.443,784.643 440.023,780.13L408.573,741.257ZM407.917,741.567C407.56,741.663 407.15,741.693 406.743,741.64L400.14,791.203C407.16,792.137 414.317,791.66 421.157,789.78L407.917,741.567Z" style="fill:white;fill-rule:nonzero;"/>
                <path d="M283.333,375C269.526,375 258.333,386.193 258.333,400C258.333,413.807 269.526,425 283.333,425L283.333,375ZM333.333,425C347.14,425 358.333,413.807 358.333,400C358.333,386.193 347.14,375 333.333,375L333.333,425ZM283.333,425L333.333,425L333.333,375L283.333,375L283.333,425Z" style="fill:white;fill-rule:nonzero;"/>
            </g>
        </g>
    </g>
</svg>
