<?xml version="1.0" encoding="UTF-8" standalone="no"?>
<!DOCTYPE svg PUBLIC "-//W3C//DTD SVG 1.1//EN" "http://www.w3.org/Graphics/SVG/1.1/DTD/svg11.dtd">
<svg width="100%" height="100%" viewBox="0 0 3600 3600" version="1.1" xmlns="http://www.w3.org/2000/svg" xmlns:xlink="http://www.w3.org/1999/xlink" xml:space="preserve" xmlns:serif="http://www.serif.com/" style="fill-rule:evenodd;clip-rule:evenodd;stroke-linecap:round;stroke-linejoin:round;">
    <g transform="matrix(1,0,0,1,-12891,0)">
        <g id="Artboard1" transform="matrix(1,0,0,1,12892.6,-2.41288)">
            <rect x="-1.609" y="2.413" width="3599.2" height="3599.2" style="fill:none;"/>
            <g id="primary" transform="matrix(3.55465,0,0,3.55465,-99.2694,219.707)">
                <path d="M466.667,443C445.038,436.528 422.576,433.271 400,433.333L333.333,433.333C205.33,433.333 100,538.664 100,666.667C100,684.953 115.047,700 133.333,700L500,700" style="fill:none;fill-rule:nonzero;stroke:black;stroke-width:73.37px;"/>
            </g>
            <g id="primary-2" transform="matrix(3.55465,0,0,3.55465,-99.2694,219.707)">
                <circle cx="366.667" cy="266.667" r="166.667" style="fill:none;stroke:black;stroke-width:73.37px;"/>
            </g>
            <g id="primary1" serif:id="primary" transform="matrix(-2.82578,0,0,2.82578,3672.87,677.05)">
                <path d="M466.667,443C445.038,436.528 422.576,433.271 400,433.333L333.333,433.333C205.33,433.333 100,538.664 100,666.667C100,684.953 115.047,700 133.333,700L500,700" style="fill:none;fill-rule:nonzero;stroke:black;stroke-width:92.29px;"/>
            </g>
            <g id="primary-21" serif:id="primary-2" transform="matrix(-2.82578,0,0,2.82578,3672.87,677.05)">
                <circle cx="366.667" cy="266.667" r="166.667" style="fill:none;stroke:black;stroke-width:92.29px;"/>
            </g>
        </g>
    </g>
</svg>
